{
	"patcher" : 	{
		"fileversion" : 1,
		"appversion" : 		{
			"major" : 7,
			"minor" : 3,
			"revision" : 2,
			"architecture" : "x64",
			"modernui" : 1
		}
,
		"rect" : [ 288.0, 79.0, 987.0, 698.0 ],
		"bglocked" : 0,
		"openinpresentation" : 0,
		"default_fontsize" : 12.0,
		"default_fontface" : 0,
		"default_fontname" : "Arial",
		"gridonopen" : 1,
		"gridsize" : [ 15.0, 15.0 ],
		"gridsnaponopen" : 1,
		"objectsnaponopen" : 1,
		"statusbarvisible" : 2,
		"toolbarvisible" : 1,
		"lefttoolbarpinned" : 0,
		"toptoolbarpinned" : 0,
		"righttoolbarpinned" : 0,
		"bottomtoolbarpinned" : 0,
		"toolbars_unpinned_last_save" : 0,
		"tallnewobj" : 0,
		"boxanimatetime" : 200,
		"enablehscroll" : 1,
		"enablevscroll" : 1,
		"devicewidth" : 0.0,
		"description" : "",
		"digest" : "",
		"tags" : "",
		"style" : "",
		"subpatcher_template" : "",
		"boxes" : [ 			{
				"box" : 				{
					"bubble" : 1,
					"fontname" : "Arial",
					"fontsize" : 13.0,
					"id" : "obj-75",
					"linecount" : 2,
					"maxclass" : "comment",
					"numinlets" : 1,
					"numoutlets" : 0,
					"patching_rect" : [ 532.5, 28.0, 170.0, 40.0 ],
					"style" : "",
					"text" : "Re-inject the rendered chords in a lambda loop"
				}

			}
, 			{
				"box" : 				{
					"id" : "obj-74",
					"maxclass" : "newobj",
					"numinlets" : 1,
					"numoutlets" : 1,
					"outlettype" : [ "" ],
					"patching_rect" : [ 511.5, 834.0, 76.0, 22.0 ],
					"style" : "",
					"text" : "bach.wrap 1"
				}

			}
, 			{
				"box" : 				{
					"id" : "obj-73",
					"maxclass" : "newobj",
					"numinlets" : 2,
					"numoutlets" : 1,
					"outlettype" : [ "float" ],
					"patching_rect" : [ 909.5, 754.0, 29.5, 22.0 ],
					"style" : "",
					"text" : "* 0."
				}

			}
, 			{
				"box" : 				{
					"id" : "obj-72",
					"maxclass" : "newobj",
					"numinlets" : 1,
					"numoutlets" : 1,
					"outlettype" : [ "" ],
					"patching_rect" : [ 559.5, 501.5, 97.0, 22.0 ],
					"style" : "",
					"text" : "prepend sample"
				}

			}
, 			{
				"box" : 				{
					"id" : "obj-65",
					"maxclass" : "message",
					"numinlets" : 2,
					"numoutlets" : 1,
					"outlettype" : [ "" ],
					"patching_rect" : [ 614.5, 433.5, 43.0, 22.0 ],
					"style" : "",
					"text" : "set $1"
				}

			}
, 			{
				"box" : 				{
					"id" : "obj-70",
					"maxclass" : "newobj",
					"numinlets" : 1,
					"numoutlets" : 2,
					"outlettype" : [ "bang", "float" ],
					"patching_rect" : [ 511.5, 300.0, 31.0, 22.0 ],
					"style" : "",
					"text" : "t b f"
				}

			}
, 			{
				"box" : 				{
					"id" : "obj-69",
					"maxclass" : "newobj",
					"numinlets" : 2,
					"numoutlets" : 1,
					"outlettype" : [ "float" ],
					"patching_rect" : [ 854.0, 754.0, 31.0, 22.0 ],
					"style" : "",
					"text" : "+ 0."
				}

			}
, 			{
				"box" : 				{
					"id" : "obj-68",
					"maxclass" : "newobj",
					"numinlets" : 4,
					"numoutlets" : 1,
					"outlettype" : [ "" ],
					"patching_rect" : [ 854.0, 786.0, 185.5, 22.0 ],
					"style" : "",
					"text" : "pack f f f i"
				}

			}
, 			{
				"box" : 				{
					"id" : "obj-67",
					"maxclass" : "newobj",
					"numinlets" : 1,
					"numoutlets" : 3,
					"outlettype" : [ "", "", "" ],
					"patching_rect" : [ 854.0, 717.0, 130.0, 22.0 ],
					"style" : "",
					"text" : "bach.pick 1 3 2 @out t"
				}

			}
, 			{
				"box" : 				{
					"id" : "obj-64",
					"maxclass" : "message",
					"numinlets" : 2,
					"numoutlets" : 1,
					"outlettype" : [ "" ],
					"patching_rect" : [ 854.0, 817.0, 89.0, 22.0 ],
					"style" : "",
					"text" : "$2 [ $1 $3 $4 ]"
				}

			}
, 			{
				"box" : 				{
					"id" : "obj-62",
					"maxclass" : "newobj",
					"numinlets" : 2,
					"numoutlets" : 2,
					"outlettype" : [ "", "" ],
					"patching_rect" : [ 511.5, 795.0, 232.0, 22.0 ],
					"style" : "",
					"text" : "bach.mapelem @maxdepth 1 @unwrap 1"
				}

			}
, 			{
				"box" : 				{
					"id" : "obj-61",
					"maxclass" : "newobj",
					"numinlets" : 2,
					"numoutlets" : 1,
					"outlettype" : [ "" ],
					"patching_rect" : [ 511.5, 754.0, 149.0, 22.0 ],
					"saved_object_attributes" : 					{
						"embed" : 0
					}
,
					"style" : "",
					"text" : "bach.reg"
				}

			}
, 			{
				"box" : 				{
					"id" : "obj-58",
					"maxclass" : "newobj",
					"numinlets" : 1,
					"numoutlets" : 1,
					"outlettype" : [ "" ],
					"patching_rect" : [ 641.5, 705.0, 67.0, 22.0 ],
					"style" : "",
					"text" : "bach.trans"
				}

			}
, 			{
				"box" : 				{
					"id" : "obj-24",
					"maxclass" : "newobj",
					"numinlets" : 1,
					"numoutlets" : 1,
					"outlettype" : [ "" ],
					"patching_rect" : [ 559.5, 533.0, 80.0, 22.0 ],
					"style" : "",
					"text" : "append delta"
				}

			}
, 			{
				"box" : 				{
					"id" : "obj-56",
					"maxclass" : "newobj",
					"numinlets" : 3,
					"numoutlets" : 1,
					"outlettype" : [ "" ],
					"patching_rect" : [ 641.5, 673.0, 253.0, 22.0 ],
					"style" : "",
					"text" : "bach.join 3 @inwrap 1"
				}

			}
, 			{
				"box" : 				{
					"id" : "obj-54",
					"maxclass" : "newobj",
					"numinlets" : 1,
					"numoutlets" : 2,
					"outlettype" : [ "", "" ],
					"patching_rect" : [ 758.5, 609.0, 81.0, 22.0 ],
					"style" : "",
					"text" : "bach.pick 2 1"
				}

			}
, 			{
				"box" : 				{
					"id" : "obj-53",
					"maxclass" : "newobj",
					"numinlets" : 2,
					"numoutlets" : 2,
					"outlettype" : [ "", "" ],
					"patching_rect" : [ 641.5, 641.0, 136.0, 22.0 ],
					"style" : "",
					"text" : "gate 2 1"
				}

			}
, 			{
				"box" : 				{
					"id" : "obj-52",
					"maxclass" : "newobj",
					"numinlets" : 1,
					"numoutlets" : 4,
					"outlettype" : [ "float", "int", "float", "int" ],
					"patching_rect" : [ 559.5, 399.0, 50.5, 22.0 ],
					"style" : "",
					"text" : "t f 1 f 2"
				}

			}
, 			{
				"box" : 				{
					"id" : "obj-51",
					"maxclass" : "newobj",
					"numinlets" : 1,
					"numoutlets" : 2,
					"outlettype" : [ "", "bang" ],
					"patching_rect" : [ 758.5, 578.0, 107.0, 22.0 ],
					"style" : "",
					"text" : "bach.keys sample"
				}

			}
, 			{
				"box" : 				{
					"id" : "obj-50",
					"maxclass" : "newobj",
					"numinlets" : 1,
					"numoutlets" : 1,
					"outlettype" : [ "" ],
					"patching_rect" : [ 559.5, 471.5, 65.0, 22.0 ],
					"style" : "",
					"text" : "prepend 1"
				}

			}
, 			{
				"box" : 				{
					"id" : "obj-48",
					"maxclass" : "newobj",
					"numinlets" : 2,
					"numoutlets" : 1,
					"outlettype" : [ "float" ],
					"patching_rect" : [ 559.5, 364.0, 32.222229, 22.0 ],
					"style" : "",
					"text" : "!/ 1."
				}

			}
, 			{
				"box" : 				{
					"id" : "obj-46",
					"maxclass" : "newobj",
					"numinlets" : 2,
					"numoutlets" : 1,
					"outlettype" : [ "" ],
					"patching_rect" : [ 1013.722229, 332.5, 101.0, 22.0 ],
					"style" : "",
					"text" : "bach.nth ( 1 4 3 )"
				}

			}
, 			{
				"box" : 				{
					"id" : "obj-47",
					"linecount" : 3,
					"maxclass" : "newobj",
					"numinlets" : 2,
					"numoutlets" : 2,
					"outlettype" : [ "", "" ],
					"patching_rect" : [ 915.0, 319.0, 91.0, 49.0 ],
					"style" : "",
					"text" : "bach.mapelem @maxdepth 1 @unwrap 1"
				}

			}
, 			{
				"box" : 				{
					"id" : "obj-44",
					"maxclass" : "newobj",
					"numinlets" : 2,
					"numoutlets" : 1,
					"outlettype" : [ "" ],
					"patching_rect" : [ 807.722229, 332.5, 101.0, 22.0 ],
					"style" : "",
					"text" : "bach.nth ( 1 2 3 )"
				}

			}
, 			{
				"box" : 				{
					"id" : "obj-43",
					"linecount" : 3,
					"maxclass" : "newobj",
					"numinlets" : 2,
					"numoutlets" : 2,
					"outlettype" : [ "", "" ],
					"patching_rect" : [ 709.0, 319.0, 91.0, 49.0 ],
					"style" : "",
					"text" : "bach.mapelem @maxdepth 1 @unwrap 1"
				}

			}
, 			{
				"box" : 				{
					"id" : "obj-41",
					"maxclass" : "newobj",
					"numinlets" : 2,
					"numoutlets" : 1,
					"outlettype" : [ "" ],
					"patching_rect" : [ 709.0, 460.0, 106.0, 22.0 ],
					"style" : "",
					"text" : "bach.prepend slot"
				}

			}
, 			{
				"box" : 				{
					"id" : "obj-40",
					"maxclass" : "newobj",
					"numinlets" : 1,
					"numoutlets" : 1,
					"outlettype" : [ "" ],
					"patching_rect" : [ 709.0, 426.0, 93.0, 22.0 ],
					"style" : "",
					"text" : "bach.pack slots"
				}

			}
, 			{
				"box" : 				{
					"id" : "obj-39",
					"maxclass" : "newobj",
					"numinlets" : 2,
					"numoutlets" : 1,
					"outlettype" : [ "" ],
					"patching_rect" : [ 709.0, 392.0, 225.0, 22.0 ],
					"style" : "",
					"text" : "bach.pack 1 2"
				}

			}
, 			{
				"box" : 				{
					"fontsize" : 13.0,
					"id" : "obj-38",
					"linecount" : 2,
					"maxclass" : "newobj",
					"numinlets" : 1,
					"numoutlets" : 4,
					"outlettype" : [ "", "", "", "" ],
					"patching_rect" : [ 511.5, 239.728973, 182.0, 38.0 ],
					"style" : "",
					"text" : "bach.playkeys cents duration breakpoints (slot 3) @out t"
				}

			}
, 			{
				"box" : 				{
					"fontsize" : 18.042035,
					"id" : "obj-37",
					"maxclass" : "comment",
					"numinlets" : 1,
					"numoutlets" : 0,
					"patching_rect" : [ 636.0, 210.728973, 182.0, 27.0 ],
					"style" : "",
					"text" : "off-line rendering part"
				}

			}
, 			{
				"box" : 				{
					"fontsize" : 18.042035,
					"id" : "obj-36",
					"maxclass" : "comment",
					"numinlets" : 1,
					"numoutlets" : 0,
					"patching_rect" : [ 160.5, 181.728973, 154.0, 27.0 ],
					"style" : "",
					"text" : "real-time play part"
				}

			}
, 			{
				"box" : 				{
					"bgslots" : [ 1, 2 ],
					"bwcompatibility" : 70911,
					"fontface" : 0,
					"fontname" : "Arial",
					"fontsize" : 12.0,
					"id" : "obj-27",
					"maxclass" : "bach.slot",
					"numinlets" : 1,
					"numoutlets" : 3,
					"out" : "nn",
					"outlettype" : [ "", "", "bang" ],
					"patching_rect" : [ 709.0, 509.0, 118.0, 56.0 ],
					"slotwinalpha" : 40.0,
					"textcolor" : [ 0.0, 0.0, 0.0, 0.0 ],
					"versionnumber" : 70911,
					"whole_uislot_data_0000000000" : [ "slot", "(", "slotinfo", "(", 1, "(", "name", "delta midicents", ")", "(", "type", "function", ")", "(", "key", 0, ")", "(", "range", "_x_x_x_x_bach_float64_x_x_x_x_", 0, 3234807808, "_x_x_x_x_bach_float64_x_x_x_x_", 0, 1087324160, ")", "(", "slope", "_x_x_x_x_bach_float64_x_x_x_x_", 0, 0, ")", "(", "representation", ")", "(", "grid", ")", "(", "ysnap", ")", "(", "domain", "_x_x_x_x_bach_float64_x_x_x_x_", 0, 0, "_x_x_x_x_bach_float64_x_x_x_x_", 0, 1072693248, ")", "(", "domainslope", "_x_x_x_x_bach_float64_x_x_x_x_", 0, 0, ")", "(", "width", "temporal", ")", "(", "height", "auto", ")", "(", "copywhensplit", 0, ")", "(", "access", "readandwrite", ")", ")", "(", 2, "(", "name", "velocity", ")", "(", "type", "function", ")", "(", "key", 0, ")", "(", "range", "_x_x_x_x_bach_float64_x_x_x_x_", 0, 0, "_x_x_x_x_bach_float64_x_x_x_x_", 0, 1080016896, ")", "(", "slope", "_x_x_x_x_bach_float64_x_x_x_x_", 0, 0, ")", "(", "representation", ")", "(", "grid", ")", "(", "ysnap", ")", "(", "domain", "_x_x_x_x_bach_float64_x_x_x_x_", 0, 0, "_x_x_x_x_bach_float64_x_x_x_x_", 0, 1072693248, ")", "(", "domainslope", "_x_x_x_x_bach_float64_x_x_x_x_", 0, 0, ")", "(", "width", "temporal", ")", "(", "height", "auto", ")", "(", "copywhensplit", 0, ")", "(", "access", "readandwrite", ")", ")", "(", 3, "(", "name", "slot intlist", ")", "(", "type", "intlist", ")", "(", "key", 0, ")", "(", "range", "_x_x_x_x_bach_float64_x_x_x_x_", 0, 0, "_x_x_x_x_bach_float64_x_x_x_x_", 0, 1080016896, ")", "(", "slope", "_x_x_x_x_bach_float64_x_x_x_x_", 0, 0, ")", "(", "representation", ")", "(", "default", "_x_x_x_x_bach_float64_x_x_x_x_", 0, 1078984704, ")", "(", "width", "temporal", ")", "(", "height", "auto", ")", "(", "copywhensplit", 1, ")", "(", "access", "readandwrite", ")", ")", "(", 4, "(", "name", "slot floatlist", ")", "(", "type", "floatlist", ")", "(", "key", 0, ")", "(", "range", "_x_x_x_x_bach_float64_x_x_x_x_", 0, 0, "_x_x_x_x_bach_float64_x_x_x_x_", 0, 1072693248, ")", "(", "slope", "_x_x_x_x_bach_float64_x_x_x_x_", 0, 0, ")", "(", "representation", ")", "(", "default", "_x_x_x_x_bach_float64_x_x_x_x_", 0, 0, ")", "(", "width", "temporal", ")", "(", "height", "auto", ")", "(", "copywhensplit", 1, ")", "(", "access", "readandwrite", ")", ")", "(", 5, "(", "name", "slot int", ")", "(", "type", "int", ")", "(", "key", 0, ")", "(", "range", "_x_x_x_x_bach_float64_x_x_x_x_", 0, 0, "_x_x_x_x_bach_float64_x_x_x_x_", 0, 1080016896, ")", "(", "slope", "_x_x_x_x_bach_float64_x_x_x_x_", 0, 0, ")", "(", "representation", ")", "(", "default", "_x_x_x_x_bach_float64_x_x_x_x_", 0, 1078984704, ")", "(", "width", "temporal", ")", "(", "height", "auto", ")", "(", "copywhensplit", 1, ")", "(", "access", "readandwrite", ")", ")", "(", 6, "(", "name", "slot float", ")", "(", "type", "float", ")", "(", "key", 0, ")", "(", "range", "_x_x_x_x_bach_float64_x_x_x_x_", 0, 0, "_x_x_x_x_bach_float64_x_x_x_x_", 0, 1072693248, ")", "(", "slope", "_x_x_x_x_bach_float64_x_x_x_x_", 0, 0, ")", "(", "representation", ")", "(", "default", "_x_x_x_x_bach_float64_x_x_x_x_", 0, 0, ")", "(", "width", "temporal", ")", "(", "height", "auto", ")", "(", "copywhensplit", 1, ")", "(", "access", "readandwrite", ")", ")", "(", 7, "(", "name", "lyrics", ")", "(", "type", "text", ")", "(", "key", 0, ")", "(", "width", "temporal", ")", "(", "height", "auto", ")", "(", "copywhensplit", 0, ")", "(", "access", "readandwrite", ")", ")", "(", 8, "(", "name", "filelist", ")", "(", "type", "filelist", ")", "(", "key", 0, ")", "(", "width", "temporal", ")", "(", "height", "auto", ")", "(", "copywhensplit", 1, ")", "(", "access", "readandwrite", ")", ")", "(", 9, "(", "name", "spat", ")", "(", "type", "spat", ")", "(", "key", 0, ")", "(", "range", "_x_x_x_x_bach_float64_x_x_x_x_", 0, 0, "_x_x_x_x_bach_float64_x_x_x_x_", 0, 1076101120, ")", "(", "slope", "_x_x_x_x_bach_float64_x_x_x_x_", 0, 0, ")", "(", "representation", ")", "(", "width", "temporal", ")", "(", "height", "auto", ")", "(", "copywhensplit", 0, ")", "(", "access", "readandwrite", ")", ")", "(", 10, "(", "name", "slot 10", ")", "(", "type", "none", ")", "(", "key", 0, ")", "(", "width", "temporal", ")", "(", "height", "auto", ")", "(", "copywhensplit", 0, ")", "(", "access", "readandwrite", ")", ")", "(", 11, "(", "name", "slot 11", ")", "(", "type", "none", ")", "(", "key", 0, ")", "(", "width", "temporal", ")", "(", "height", "auto", ")", "(", "copywhensplit", 1, ")", "(", "access", "readandwrite", ")", ")", "(", 12, "(", "name", "slot 12", ")", "(", "type", "none", ")", "(", "key", 0, ")", "(", "width", "temporal", ")", "(", "height", "auto", ")", "(", "copywhensplit", 1, ")", "(", "access", "readandwrite", ")", ")", "(", 13, "(", "name", "slot 13", ")", "(", "type", "none", ")", "(", "key", 0, ")", "(", "width", "temporal", ")", "(", "height", "auto", ")", "(", "copywhensplit", 1, ")", "(", "access", "readandwrite", ")", ")", "(", 14, "(", "name", "slot 14", ")", "(", "type", "none", ")", "(", "key", 0, ")", "(", "width", "temporal", ")", "(", "height", "auto", ")", "(", "copywhensplit", 1, ")", "(", "access", "readandwrite", ")", ")", "(", 15, "(", "name", "slot 15", ")", "(", "type", "none", ")", "(", "key", 0, ")", "(", "width", "temporal", ")", "(", "height", "auto", ")", "(", "copywhensplit", 1, ")", "(", "access", "readandwrite", ")", ")", "(", 16, "(", "name", "slot 16", ")", "(", "type", "none", ")", "(", "key", 0, ")", "(", "width", "temporal", ")", "(", "height", "auto", ")", "(", "copywhensplit", 1, ")", "(", "access", "readandwrite", ")", ")", "(", 17, "(", "name", "slot 17", ")", "(", "type", "none", ")", "(", "key", 0, ")", "(", "width", "temporal", ")", "(", "height", "auto", ")", "(", "copywhensplit", 1, ")", "(", "access", "readandwrite", ")", ")", "(", 18, "(", "name", "slot 18", ")", "(", "type", "none", ")", "(", "key", 0, ")", "(", "width", "temporal", ")", "(", "height", "auto", ")", "(", "copywhensplit", 1, ")", "(", "access", "readandwrite", ")", ")", "(", 19, "(", "name", "slot 19", ")", "(", "type", "none", ")", "(", "key", 0, ")", "(", "width", "temporal", ")", "(", "height", "auto", ")", "(", "copywhensplit", 1, ")", "(", "access", "readandwrite", ")", ")", "(", 20, "(", "name", "slot 20", ")", "(", "type", "none", ")", "(", "key", 0, ")", "(", "width", "temporal", ")", "(", "height", "auto", ")", "(", "copywhensplit", 0, ")", "(", "access", "readandwrite", ")", ")", "(", 21, "(", "name", "slot 21", ")", "(", "type", "none", ")", "(", "key", 0, ")", "(", "width", "temporal", ")", "(", "height", "auto", ")", "(", "copywhensplit", 0, ")", "(", "access", "readandwrite", ")", ")", "(", 22, "(", "name", "slot 22", ")", "(", "type", "none", ")", "(", "key", 0, ")", "(", "width", "temporal", ")", "(", "height", "auto", ")", "(", "copywhensplit", 1, ")", "(", "access", "readandwrite", ")", ")", "(", 23, "(", "name", "slot 23", ")", "(", "type", "none", ")", "(", "key", 0, ")", "(", "width", "temporal", ")", "(", "height", "auto", ")", "(", "copywhensplit", 1, ")", "(", "access", "readandwrite", ")", ")", "(", 24, "(", "name", "slot 24", ")", "(", "type", "none", ")", "(", "key", 0, ")", "(", "width", "temporal", ")", "(", "height", "auto", ")", "(", "copywhensplit", 1, ")", "(", "access", "readandwrite", ")", ")", "(", 25, "(", "name", "slot 25", ")", "(", "type", "none", ")", "(", "key", 0, ")", "(", "width", "temporal", ")", "(", "height", "auto", ")", "(", "copywhensplit", 1, ")", "(", "access", "readandwrite", ")", ")", "(", 26, "(", "name", "slot 26", ")", "(", "type", "none", ")", "(", "key", 0, ")", "(", "width", "temporal", ")", "(", "height", "auto", ")", "(", "copywhensplit", 1, ")", "(", "access", "readandwrite", ")", ")", "(", 27, "(", "name", "slot 27", ")", "(", "type", "none", ")", "(", "key", 0, ")", "(", "width", "temporal", ")", "(", "height", "auto", ")", "(", "copywhensplit", 1, ")", "(", "access", "readandwrite", ")", ")", "(", 28, "(", "name", "slot 28", ")", "(", "type", "none", ")", "(", "key", 0, ")", "(", "width", "temporal", ")", "(", "height", "auto", ")", "(", "copywhensplit", 1, ")", "(", "access", "readandwrite", ")", ")", "(", 29, "(", "name", "slot 29", ")", "(", "type", "none", ")", "(", "key", 0, ")", "(", "width", "temporal", ")", "(", "height", "auto", ")", "(", "copywhensplit", 1, ")", "(", "access", "readandwrite", ")", ")", "(", 30, "(", "name", "slot 30", ")", "(", "type", "none", ")", "(", "key", 0, ")", "(", "width", "temporal", ")", "(", "height", "auto", ")", "(", "copywhensplit", 1, ")", "(", "access", "readandwrite", ")", ")", ")", "(", "slots", "(", 1, "(", "_x_x_x_x_bach_float64_x_x_x_x_", 0, 0, "_x_x_x_x_bach_float64_x_x_x_x_", 0, 0, "_x_x_x_x_bach_float64_x_x_x_x_", 0, 0, ")", "(", "_x_x_x_x_bach_float64_x_x_x_x_", 0, 1072693248, "_x_x_x_x_bach_float64_x_x_x_x_", 0, 0, "_x_x_x_x_bach_float64_x_x_x_x_", 0, 0, ")", ")", "(", 2, "(", "_x_x_x_x_bach_float64_x_x_x_x_", 0, 0, "_x_x_x_x_bach_float64_x_x_x_x_", 0, 1078067200, "_x_x_x_x_bach_float64_x_x_x_x_", 0, 0, ")", "(", "_x_x_x_x_bach_float64_x_x_x_x_", 0, 1072693248, "_x_x_x_x_bach_float64_x_x_x_x_", 0, 1080016896, "_x_x_x_x_bach_float64_x_x_x_x_", 0, 0, ")", ")", ")" ],
					"whole_uislot_data_count" : [ 1 ]
				}

			}
, 			{
				"box" : 				{
					"bubble" : 1,
					"fontname" : "Arial",
					"fontsize" : 13.0,
					"id" : "obj-34",
					"linecount" : 2,
					"maxclass" : "comment",
					"numinlets" : 1,
					"numoutlets" : 0,
					"patching_rect" : [ 569.722229, 76.0, 248.0, 40.0 ],
					"style" : "",
					"text" : "Here come the rendering messages (for off-line score rendering)"
				}

			}
, 			{
				"box" : 				{
					"fontname" : "Arial",
					"fontsize" : 13.0,
					"id" : "obj-33",
					"maxclass" : "newobj",
					"numinlets" : 1,
					"numoutlets" : 0,
					"patching_rect" : [ 555.722229, 118.5, 114.0, 23.0 ],
					"style" : "",
					"text" : "bach.print Render"
				}

			}
, 			{
				"box" : 				{
					"bubble" : 1,
					"bubblepoint" : 1.0,
					"bubbleside" : 0,
					"fontname" : "Arial",
					"fontsize" : 13.0,
					"id" : "obj-28",
					"maxclass" : "comment",
					"numinlets" : 1,
					"numoutlets" : 0,
					"patching_rect" : [ 198.5, 114.0, 78.0, 40.0 ],
					"style" : "",
					"text" : "Instance ID"
				}

			}
, 			{
				"box" : 				{
					"bubble" : 1,
					"bubblepoint" : 0.1,
					"bubbleside" : 0,
					"fontname" : "Arial",
					"fontsize" : 13.0,
					"id" : "obj-11",
					"linecount" : 2,
					"maxclass" : "comment",
					"numinlets" : 1,
					"numoutlets" : 0,
					"patching_rect" : [ 403.666656, 143.5, 293.0, 55.0 ],
					"style" : "",
					"text" : "Here come the real-time playback messages from the Playout: do any process with them"
				}

			}
, 			{
				"box" : 				{
					"fontname" : "Arial",
					"fontsize" : 13.0,
					"id" : "obj-26",
					"maxclass" : "newobj",
					"numinlets" : 1,
					"numoutlets" : 0,
					"patching_rect" : [ 391.5, 114.0, 124.0, 23.0 ],
					"style" : "",
					"text" : "bach.print Playback"
				}

			}
, 			{
				"box" : 				{
					"bubble" : 1,
					"fontname" : "Arial",
					"fontsize" : 13.0,
					"id" : "obj-32",
					"linecount" : 2,
					"maxclass" : "comment",
					"numinlets" : 1,
					"numoutlets" : 0,
					"patching_rect" : [ 198.5, 12.0, 221.0, 40.0 ],
					"style" : "",
					"text" : "bang to get instance ID (which is also output at initialization)"
				}

			}
, 			{
				"box" : 				{
					"id" : "obj-31",
					"maxclass" : "button",
					"numinlets" : 1,
					"numoutlets" : 1,
					"outlettype" : [ "bang" ],
					"patching_rect" : [ 168.5, 20.0, 24.0, 24.0 ],
					"style" : ""
				}

			}
, 			{
				"box" : 				{
					"id" : "obj-25",
					"maxclass" : "number",
					"numinlets" : 1,
					"numoutlets" : 2,
					"outlettype" : [ "", "bang" ],
					"parameter_enable" : 0,
					"patching_rect" : [ 282.833344, 88.5, 50.0, 22.0 ],
					"style" : ""
				}

			}
, 			{
				"box" : 				{
					"bubble" : 1,
					"bubbleside" : 3,
					"fontname" : "Arial",
					"fontsize" : 13.0,
					"id" : "obj-14",
					"linecount" : 3,
					"maxclass" : "comment",
					"numinlets" : 1,
					"numoutlets" : 0,
					"patching_rect" : [ 29.5, 59.5, 131.0, 54.0 ],
					"style" : "",
					"text" : "This must be connected to thispatcher"
				}

			}
, 			{
				"box" : 				{
					"fontname" : "Arial",
					"fontsize" : 13.0,
					"id" : "obj-29",
					"maxclass" : "newobj",
					"numinlets" : 2,
					"numoutlets" : 1,
					"outlettype" : [ "" ],
					"patching_rect" : [ 184.722229, 451.0, 72.0, 23.0 ],
					"style" : "",
					"text" : "bach.mc2f"
				}

			}
, 			{
				"box" : 				{
					"fontname" : "Arial",
					"fontsize" : 13.0,
					"id" : "obj-30",
					"maxclass" : "newobj",
					"numinlets" : 2,
					"numoutlets" : 1,
					"outlettype" : [ "" ],
					"patching_rect" : [ 265.0, 423.0, 76.0, 23.0 ],
					"style" : "",
					"text" : "bach./ 127."
				}

			}
, 			{
				"box" : 				{
					"fontname" : "Arial",
					"fontsize" : 13.0,
					"id" : "obj-21",
					"maxclass" : "newobj",
					"numinlets" : 3,
					"numoutlets" : 2,
					"outlettype" : [ "signal", "bang" ],
					"patching_rect" : [ 136.166656, 481.0, 51.0, 23.0 ],
					"style" : "",
					"text" : "curve~"
				}

			}
, 			{
				"box" : 				{
					"fontname" : "Arial",
					"fontsize" : 13.0,
					"id" : "obj-19",
					"maxclass" : "newobj",
					"numinlets" : 3,
					"numoutlets" : 2,
					"outlettype" : [ "signal", "bang" ],
					"patching_rect" : [ 77.5, 481.0, 51.0, 23.0 ],
					"style" : "",
					"text" : "curve~"
				}

			}
, 			{
				"box" : 				{
					"fontname" : "Arial",
					"fontsize" : 13.0,
					"id" : "obj-15",
					"maxclass" : "newobj",
					"numinlets" : 6,
					"numoutlets" : 4,
					"outlettype" : [ "", "", "", "" ],
					"patching_rect" : [ 77.5, 423.0, 173.333328, 23.0 ],
					"style" : "",
					"text" : "bach.dl2curve @out t"
				}

			}
, 			{
				"box" : 				{
					"fontname" : "Arial",
					"fontsize" : 13.0,
					"id" : "obj-5",
					"maxclass" : "newobj",
					"numinlets" : 2,
					"numoutlets" : 1,
					"outlettype" : [ "signal" ],
					"patching_rect" : [ 77.5, 565.0, 79.0, 23.0 ],
					"style" : "",
					"text" : "*~"
				}

			}
, 			{
				"box" : 				{
					"fontname" : "Arial",
					"fontsize" : 13.0,
					"id" : "obj-4",
					"maxclass" : "newobj",
					"numinlets" : 1,
					"numoutlets" : 3,
					"outlettype" : [ "", "", "bang" ],
					"patching_rect" : [ 319.0, 239.728973, 124.0, 23.0 ],
					"style" : "",
					"text" : "bach.keys stop end"
				}

			}
, 			{
				"box" : 				{
					"fontname" : "Arial",
					"fontsize" : 13.0,
					"id" : "obj-23",
					"maxclass" : "newobj",
					"numinlets" : 2,
					"numoutlets" : 1,
					"outlettype" : [ "signal" ],
					"patching_rect" : [ 77.5, 608.0, 35.0, 23.0 ],
					"style" : "",
					"text" : "*~"
				}

			}
, 			{
				"box" : 				{
					"fontname" : "Arial",
					"fontsize" : 13.0,
					"id" : "obj-22",
					"maxclass" : "newobj",
					"numinlets" : 2,
					"numoutlets" : 1,
					"outlettype" : [ "signal" ],
					"patching_rect" : [ 77.5, 514.0, 49.0, 23.0 ],
					"style" : "",
					"text" : "cycle~"
				}

			}
, 			{
				"box" : 				{
					"fontname" : "Arial",
					"fontsize" : 13.0,
					"id" : "obj-10",
					"maxclass" : "newobj",
					"numinlets" : 2,
					"numoutlets" : 2,
					"outlettype" : [ "signal", "bang" ],
					"patching_rect" : [ 387.333252, 488.5, 39.0, 23.0 ],
					"style" : "",
					"text" : "line~"
				}

			}
, 			{
				"box" : 				{
					"fontname" : "Arial",
					"fontsize" : 13.0,
					"id" : "obj-9",
					"maxclass" : "newobj",
					"numinlets" : 2,
					"numoutlets" : 1,
					"outlettype" : [ "" ],
					"patching_rect" : [ 292.666656, 319.0, 142.0, 23.0 ],
					"style" : "",
					"text" : "bach.slot2function 100"
				}

			}
, 			{
				"box" : 				{
					"addpoints" : [ 0.0, 0.0, 0, 9.126999, 1.0, 0, 11.354515, 0.367778, 0, 22.937607, 0.0, 0, 100.0, 0.0, 0 ],
					"domain" : 100.0,
					"id" : "obj-8",
					"maxclass" : "function",
					"numinlets" : 1,
					"numoutlets" : 4,
					"outlettype" : [ "float", "", "", "bang" ],
					"parameter_enable" : 0,
					"patching_rect" : [ 358.666656, 404.5, 105.0, 60.0 ],
					"style" : ""
				}

			}
, 			{
				"box" : 				{
					"fontname" : "Arial",
					"fontsize" : 13.0,
					"id" : "obj-6",
					"maxclass" : "newobj",
					"numinlets" : 1,
					"numoutlets" : 0,
					"patching_rect" : [ 77.5, 649.0, 112.0, 23.0 ],
					"style" : "",
					"text" : "send~ my_output"
				}

			}
, 			{
				"box" : 				{
					"fontname" : "Arial",
					"fontsize" : 13.0,
					"id" : "obj-12",
					"maxclass" : "newobj",
					"numinlets" : 1,
					"numoutlets" : 2,
					"outlettype" : [ "", "" ],
					"patching_rect" : [ 168.5, 93.0, 76.0, 23.0 ],
					"save" : [ "#N", "thispatcher", ";", "#Q", "end", ";" ],
					"style" : "",
					"text" : "thispatcher"
				}

			}
, 			{
				"box" : 				{
					"fontname" : "Arial",
					"fontsize" : 13.0,
					"id" : "obj-7",
					"maxclass" : "newobj",
					"numinlets" : 2,
					"numoutlets" : 4,
					"outlettype" : [ "", "int", "", "" ],
					"patching_rect" : [ 168.5, 59.5, 362.0, 23.0 ],
					"style" : "",
					"text" : "cage.meta.header"
				}

			}
, 			{
				"box" : 				{
					"fontname" : "Arial",
					"fontsize" : 13.0,
					"id" : "obj-20",
					"maxclass" : "message",
					"numinlets" : 2,
					"numoutlets" : 1,
					"outlettype" : [ "" ],
					"patching_rect" : [ 108.0, 345.0, 36.0, 23.0 ],
					"style" : "",
					"text" : "0"
				}

			}
, 			{
				"box" : 				{
					"fontname" : "Arial",
					"fontsize" : 13.0,
					"id" : "obj-18",
					"maxclass" : "newobj",
					"numinlets" : 1,
					"numoutlets" : 2,
					"outlettype" : [ "int", "int" ],
					"patching_rect" : [ 64.0, 345.0, 35.0, 23.0 ],
					"style" : "",
					"text" : "t 1 i"
				}

			}
, 			{
				"box" : 				{
					"fontname" : "Arial",
					"fontsize" : 13.0,
					"id" : "obj-17",
					"maxclass" : "newobj",
					"numinlets" : 2,
					"numoutlets" : 1,
					"outlettype" : [ "bang" ],
					"patching_rect" : [ 108.0, 311.0, 58.0, 23.0 ],
					"style" : "",
					"text" : "del 100."
				}

			}
, 			{
				"box" : 				{
					"fontname" : "Arial",
					"fontsize" : 13.0,
					"id" : "obj-16",
					"maxclass" : "newobj",
					"numinlets" : 1,
					"numoutlets" : 2,
					"outlettype" : [ "bang", "float" ],
					"patching_rect" : [ 108.0, 281.0, 55.0, 23.0 ],
					"style" : "",
					"text" : "t b f"
				}

			}
, 			{
				"box" : 				{
					"fontsize" : 13.0,
					"id" : "obj-13",
					"linecount" : 3,
					"maxclass" : "newobj",
					"numinlets" : 1,
					"numoutlets" : 6,
					"outlettype" : [ "", "", "", "", "", "" ],
					"patching_rect" : [ 61.5, 210.728973, 195.222229, 52.0 ],
					"style" : "",
					"text" : "bach.playkeys cents velocity duration breakpoints (slot 3 4) @out tttntn"
				}

			}
, 			{
				"box" : 				{
					"fontname" : "Arial",
					"fontsize" : 13.0,
					"id" : "obj-3",
					"maxclass" : "newobj",
					"numinlets" : 2,
					"numoutlets" : 1,
					"outlettype" : [ "bang" ],
					"patching_rect" : [ 64.0, 377.0, 161.0, 23.0 ],
					"style" : "",
					"text" : "metro 100"
				}

			}
 ],
		"lines" : [ 			{
				"patchline" : 				{
					"destination" : [ "obj-23", 1 ],
					"disabled" : 0,
					"hidden" : 0,
					"source" : [ "obj-10", 0 ]
				}

			}
, 			{
				"patchline" : 				{
					"color" : [ 0.8, 0.174376, 0.742258, 0.49 ],
					"destination" : [ "obj-15", 3 ],
					"disabled" : 0,
					"hidden" : 0,
					"source" : [ "obj-13", 3 ]
				}

			}
, 			{
				"patchline" : 				{
					"color" : [ 0.8, 0.174376, 0.742258, 0.49 ],
					"destination" : [ "obj-15", 2 ],
					"disabled" : 0,
					"hidden" : 0,
					"order" : 0,
					"source" : [ "obj-13", 2 ]
				}

			}
, 			{
				"patchline" : 				{
					"color" : [ 0.8, 0.174376, 0.742258, 0.49 ],
					"destination" : [ "obj-15", 1 ],
					"disabled" : 0,
					"hidden" : 0,
					"source" : [ "obj-13", 1 ]
				}

			}
, 			{
				"patchline" : 				{
					"destination" : [ "obj-16", 0 ],
					"disabled" : 0,
					"hidden" : 0,
					"order" : 1,
					"source" : [ "obj-13", 2 ]
				}

			}
, 			{
				"patchline" : 				{
					"destination" : [ "obj-18", 0 ],
					"disabled" : 0,
					"hidden" : 0,
					"source" : [ "obj-13", 0 ]
				}

			}
, 			{
				"patchline" : 				{
					"destination" : [ "obj-3", 1 ],
					"disabled" : 0,
					"hidden" : 0,
					"source" : [ "obj-13", 4 ]
				}

			}
, 			{
				"patchline" : 				{
					"destination" : [ "obj-9", 0 ],
					"disabled" : 0,
					"hidden" : 0,
					"source" : [ "obj-13", 5 ]
				}

			}
, 			{
				"patchline" : 				{
					"destination" : [ "obj-19", 0 ],
					"disabled" : 0,
					"hidden" : 0,
					"source" : [ "obj-15", 0 ]
				}

			}
, 			{
				"patchline" : 				{
					"destination" : [ "obj-21", 0 ],
					"disabled" : 0,
					"hidden" : 0,
					"source" : [ "obj-15", 1 ]
				}

			}
, 			{
				"patchline" : 				{
					"destination" : [ "obj-29", 0 ],
					"disabled" : 0,
					"hidden" : 0,
					"source" : [ "obj-15", 2 ]
				}

			}
, 			{
				"patchline" : 				{
					"destination" : [ "obj-30", 0 ],
					"disabled" : 0,
					"hidden" : 0,
					"source" : [ "obj-15", 3 ]
				}

			}
, 			{
				"patchline" : 				{
					"destination" : [ "obj-17", 1 ],
					"disabled" : 0,
					"hidden" : 0,
					"source" : [ "obj-16", 1 ]
				}

			}
, 			{
				"patchline" : 				{
					"destination" : [ "obj-17", 0 ],
					"disabled" : 0,
					"hidden" : 0,
					"source" : [ "obj-16", 0 ]
				}

			}
, 			{
				"patchline" : 				{
					"destination" : [ "obj-20", 0 ],
					"disabled" : 0,
					"hidden" : 0,
					"source" : [ "obj-17", 0 ]
				}

			}
, 			{
				"patchline" : 				{
					"color" : [ 0.8, 0.174376, 0.742258, 0.49 ],
					"destination" : [ "obj-15", 0 ],
					"disabled" : 0,
					"hidden" : 0,
					"source" : [ "obj-18", 1 ]
				}

			}
, 			{
				"patchline" : 				{
					"destination" : [ "obj-3", 0 ],
					"disabled" : 0,
					"hidden" : 0,
					"source" : [ "obj-18", 0 ]
				}

			}
, 			{
				"patchline" : 				{
					"destination" : [ "obj-22", 0 ],
					"disabled" : 0,
					"hidden" : 0,
					"source" : [ "obj-19", 0 ]
				}

			}
, 			{
				"patchline" : 				{
					"destination" : [ "obj-3", 0 ],
					"disabled" : 0,
					"hidden" : 0,
					"source" : [ "obj-20", 0 ]
				}

			}
, 			{
				"patchline" : 				{
					"destination" : [ "obj-5", 1 ],
					"disabled" : 0,
					"hidden" : 0,
					"source" : [ "obj-21", 0 ]
				}

			}
, 			{
				"patchline" : 				{
					"destination" : [ "obj-5", 0 ],
					"disabled" : 0,
					"hidden" : 0,
					"source" : [ "obj-22", 0 ]
				}

			}
, 			{
				"patchline" : 				{
					"destination" : [ "obj-6", 0 ],
					"disabled" : 0,
					"hidden" : 0,
					"source" : [ "obj-23", 0 ]
				}

			}
, 			{
				"patchline" : 				{
					"destination" : [ "obj-27", 0 ],
					"disabled" : 0,
					"hidden" : 0,
					"source" : [ "obj-24", 0 ]
				}

			}
, 			{
				"patchline" : 				{
					"destination" : [ "obj-51", 0 ],
					"disabled" : 0,
					"hidden" : 0,
					"source" : [ "obj-27", 1 ]
				}

			}
, 			{
				"patchline" : 				{
					"destination" : [ "obj-15", 4 ],
					"disabled" : 0,
					"hidden" : 0,
					"source" : [ "obj-29", 0 ]
				}

			}
, 			{
				"patchline" : 				{
					"destination" : [ "obj-8", 0 ],
					"disabled" : 0,
					"hidden" : 0,
					"source" : [ "obj-3", 0 ]
				}

			}
, 			{
				"patchline" : 				{
					"destination" : [ "obj-15", 5 ],
					"disabled" : 0,
					"hidden" : 0,
					"source" : [ "obj-30", 0 ]
				}

			}
, 			{
				"patchline" : 				{
					"destination" : [ "obj-7", 0 ],
					"disabled" : 0,
					"hidden" : 0,
					"source" : [ "obj-31", 0 ]
				}

			}
, 			{
				"patchline" : 				{
					"destination" : [ "obj-43", 0 ],
					"disabled" : 0,
					"hidden" : 0,
					"order" : 1,
					"source" : [ "obj-38", 2 ]
				}

			}
, 			{
				"patchline" : 				{
					"destination" : [ "obj-47", 0 ],
					"disabled" : 0,
					"hidden" : 0,
					"order" : 0,
					"source" : [ "obj-38", 2 ]
				}

			}
, 			{
				"patchline" : 				{
					"destination" : [ "obj-48", 1 ],
					"disabled" : 0,
					"hidden" : 0,
					"order" : 1,
					"source" : [ "obj-38", 3 ]
				}

			}
, 			{
				"patchline" : 				{
					"destination" : [ "obj-48", 0 ],
					"disabled" : 0,
					"hidden" : 0,
					"order" : 1,
					"source" : [ "obj-38", 1 ]
				}

			}
, 			{
				"patchline" : 				{
					"destination" : [ "obj-68", 2 ],
					"disabled" : 0,
					"hidden" : 0,
					"midpoints" : [ 684.0, 380.0, 974.5, 380.0 ],
					"order" : 0,
					"source" : [ "obj-38", 3 ]
				}

			}
, 			{
				"patchline" : 				{
					"destination" : [ "obj-70", 0 ],
					"disabled" : 0,
					"hidden" : 0,
					"source" : [ "obj-38", 0 ]
				}

			}
, 			{
				"patchline" : 				{
					"destination" : [ "obj-73", 1 ],
					"disabled" : 0,
					"hidden" : 0,
					"midpoints" : [ 575.333333, 303.0, 551.0, 303.0, 551.0, 743.0, 929.5, 743.0 ],
					"order" : 0,
					"source" : [ "obj-38", 1 ]
				}

			}
, 			{
				"patchline" : 				{
					"destination" : [ "obj-40", 0 ],
					"disabled" : 0,
					"hidden" : 0,
					"source" : [ "obj-39", 0 ]
				}

			}
, 			{
				"patchline" : 				{
					"destination" : [ "obj-20", 0 ],
					"disabled" : 0,
					"hidden" : 0,
					"source" : [ "obj-4", 1 ]
				}

			}
, 			{
				"patchline" : 				{
					"destination" : [ "obj-20", 0 ],
					"disabled" : 0,
					"hidden" : 0,
					"source" : [ "obj-4", 0 ]
				}

			}
, 			{
				"patchline" : 				{
					"destination" : [ "obj-41", 0 ],
					"disabled" : 0,
					"hidden" : 0,
					"source" : [ "obj-40", 0 ]
				}

			}
, 			{
				"patchline" : 				{
					"destination" : [ "obj-27", 0 ],
					"disabled" : 0,
					"hidden" : 0,
					"source" : [ "obj-41", 0 ]
				}

			}
, 			{
				"patchline" : 				{
					"destination" : [ "obj-39", 0 ],
					"disabled" : 0,
					"hidden" : 0,
					"source" : [ "obj-43", 0 ]
				}

			}
, 			{
				"patchline" : 				{
					"destination" : [ "obj-44", 0 ],
					"disabled" : 0,
					"hidden" : 0,
					"source" : [ "obj-43", 1 ]
				}

			}
, 			{
				"patchline" : 				{
					"destination" : [ "obj-43", 1 ],
					"disabled" : 0,
					"hidden" : 0,
					"source" : [ "obj-44", 0 ]
				}

			}
, 			{
				"patchline" : 				{
					"destination" : [ "obj-47", 1 ],
					"disabled" : 0,
					"hidden" : 0,
					"source" : [ "obj-46", 0 ]
				}

			}
, 			{
				"patchline" : 				{
					"destination" : [ "obj-39", 1 ],
					"disabled" : 0,
					"hidden" : 0,
					"source" : [ "obj-47", 0 ]
				}

			}
, 			{
				"patchline" : 				{
					"destination" : [ "obj-46", 0 ],
					"disabled" : 0,
					"hidden" : 0,
					"source" : [ "obj-47", 1 ]
				}

			}
, 			{
				"patchline" : 				{
					"destination" : [ "obj-52", 0 ],
					"disabled" : 0,
					"hidden" : 0,
					"source" : [ "obj-48", 0 ]
				}

			}
, 			{
				"patchline" : 				{
					"destination" : [ "obj-23", 0 ],
					"disabled" : 0,
					"hidden" : 0,
					"source" : [ "obj-5", 0 ]
				}

			}
, 			{
				"patchline" : 				{
					"destination" : [ "obj-72", 0 ],
					"disabled" : 0,
					"hidden" : 0,
					"source" : [ "obj-50", 0 ]
				}

			}
, 			{
				"patchline" : 				{
					"destination" : [ "obj-54", 0 ],
					"disabled" : 0,
					"hidden" : 0,
					"source" : [ "obj-51", 0 ]
				}

			}
, 			{
				"patchline" : 				{
					"destination" : [ "obj-50", 0 ],
					"disabled" : 0,
					"hidden" : 0,
					"source" : [ "obj-52", 2 ]
				}

			}
, 			{
				"patchline" : 				{
					"destination" : [ "obj-50", 0 ],
					"disabled" : 0,
					"hidden" : 0,
					"source" : [ "obj-52", 0 ]
				}

			}
, 			{
				"patchline" : 				{
					"destination" : [ "obj-53", 0 ],
					"disabled" : 0,
					"hidden" : 0,
					"order" : 0,
					"source" : [ "obj-52", 3 ]
				}

			}
, 			{
				"patchline" : 				{
					"destination" : [ "obj-53", 0 ],
					"disabled" : 0,
					"hidden" : 0,
					"order" : 0,
					"source" : [ "obj-52", 1 ]
				}

			}
, 			{
				"patchline" : 				{
					"destination" : [ "obj-65", 0 ],
					"disabled" : 0,
					"hidden" : 0,
					"order" : 1,
					"source" : [ "obj-52", 3 ]
				}

			}
, 			{
				"patchline" : 				{
					"destination" : [ "obj-65", 0 ],
					"disabled" : 0,
					"hidden" : 0,
					"order" : 1,
					"source" : [ "obj-52", 1 ]
				}

			}
, 			{
				"patchline" : 				{
					"destination" : [ "obj-56", 1 ],
					"disabled" : 0,
					"hidden" : 0,
					"source" : [ "obj-53", 1 ]
				}

			}
, 			{
				"patchline" : 				{
					"destination" : [ "obj-56", 0 ],
					"disabled" : 0,
					"hidden" : 0,
					"source" : [ "obj-53", 0 ]
				}

			}
, 			{
				"patchline" : 				{
					"destination" : [ "obj-53", 1 ],
					"disabled" : 0,
					"hidden" : 0,
					"source" : [ "obj-54", 0 ]
				}

			}
, 			{
				"patchline" : 				{
					"destination" : [ "obj-56", 2 ],
					"disabled" : 0,
					"hidden" : 0,
					"source" : [ "obj-54", 1 ]
				}

			}
, 			{
				"patchline" : 				{
					"destination" : [ "obj-58", 0 ],
					"disabled" : 0,
					"hidden" : 0,
					"source" : [ "obj-56", 0 ]
				}

			}
, 			{
				"patchline" : 				{
					"destination" : [ "obj-61", 1 ],
					"disabled" : 0,
					"hidden" : 0,
					"source" : [ "obj-58", 0 ]
				}

			}
, 			{
				"patchline" : 				{
					"destination" : [ "obj-62", 0 ],
					"disabled" : 0,
					"hidden" : 0,
					"source" : [ "obj-61", 0 ]
				}

			}
, 			{
				"patchline" : 				{
					"destination" : [ "obj-67", 0 ],
					"disabled" : 0,
					"hidden" : 0,
					"source" : [ "obj-62", 1 ]
				}

			}
, 			{
				"patchline" : 				{
					"destination" : [ "obj-74", 0 ],
					"disabled" : 0,
					"hidden" : 0,
					"source" : [ "obj-62", 0 ]
				}

			}
, 			{
				"patchline" : 				{
					"destination" : [ "obj-62", 1 ],
					"disabled" : 0,
					"hidden" : 0,
					"source" : [ "obj-64", 0 ]
				}

			}
, 			{
				"patchline" : 				{
					"destination" : [ "obj-50", 0 ],
					"disabled" : 0,
					"hidden" : 0,
					"source" : [ "obj-65", 0 ]
				}

			}
, 			{
				"patchline" : 				{
					"destination" : [ "obj-68", 3 ],
					"disabled" : 0,
					"hidden" : 0,
					"source" : [ "obj-67", 2 ]
				}

			}
, 			{
				"patchline" : 				{
					"destination" : [ "obj-69", 0 ],
					"disabled" : 0,
					"hidden" : 0,
					"source" : [ "obj-67", 0 ]
				}

			}
, 			{
				"patchline" : 				{
					"destination" : [ "obj-73", 0 ],
					"disabled" : 0,
					"hidden" : 0,
					"source" : [ "obj-67", 1 ]
				}

			}
, 			{
				"patchline" : 				{
					"destination" : [ "obj-64", 0 ],
					"disabled" : 0,
					"hidden" : 0,
					"source" : [ "obj-68", 0 ]
				}

			}
, 			{
				"patchline" : 				{
					"destination" : [ "obj-68", 0 ],
					"disabled" : 0,
					"hidden" : 0,
					"source" : [ "obj-69", 0 ]
				}

			}
, 			{
				"patchline" : 				{
					"destination" : [ "obj-12", 0 ],
					"disabled" : 0,
					"hidden" : 0,
					"source" : [ "obj-7", 0 ]
				}

			}
, 			{
				"patchline" : 				{
					"destination" : [ "obj-13", 0 ],
					"disabled" : 0,
					"hidden" : 0,
					"order" : 2,
					"source" : [ "obj-7", 2 ]
				}

			}
, 			{
				"patchline" : 				{
					"destination" : [ "obj-25", 0 ],
					"disabled" : 0,
					"hidden" : 0,
					"source" : [ "obj-7", 1 ]
				}

			}
, 			{
				"patchline" : 				{
					"destination" : [ "obj-26", 0 ],
					"disabled" : 0,
					"hidden" : 0,
					"order" : 0,
					"source" : [ "obj-7", 2 ]
				}

			}
, 			{
				"patchline" : 				{
					"destination" : [ "obj-33", 0 ],
					"disabled" : 0,
					"hidden" : 0,
					"order" : 0,
					"source" : [ "obj-7", 3 ]
				}

			}
, 			{
				"patchline" : 				{
					"destination" : [ "obj-38", 0 ],
					"disabled" : 0,
					"hidden" : 0,
					"order" : 1,
					"source" : [ "obj-7", 3 ]
				}

			}
, 			{
				"patchline" : 				{
					"destination" : [ "obj-4", 0 ],
					"disabled" : 0,
					"hidden" : 0,
					"order" : 1,
					"source" : [ "obj-7", 2 ]
				}

			}
, 			{
				"patchline" : 				{
					"destination" : [ "obj-61", 0 ],
					"disabled" : 0,
					"hidden" : 0,
					"source" : [ "obj-70", 0 ]
				}

			}
, 			{
				"patchline" : 				{
					"destination" : [ "obj-69", 1 ],
					"disabled" : 0,
					"hidden" : 0,
					"midpoints" : [ 533.0, 744.0, 875.5, 744.0 ],
					"source" : [ "obj-70", 1 ]
				}

			}
, 			{
				"patchline" : 				{
					"destination" : [ "obj-24", 0 ],
					"disabled" : 0,
					"hidden" : 0,
					"source" : [ "obj-72", 0 ]
				}

			}
, 			{
				"patchline" : 				{
					"destination" : [ "obj-68", 1 ],
					"disabled" : 0,
					"hidden" : 0,
					"source" : [ "obj-73", 0 ]
				}

			}
, 			{
				"patchline" : 				{
					"destination" : [ "obj-7", 1 ],
					"disabled" : 0,
					"hidden" : 0,
					"midpoints" : [ 521.0, 901.0, 1156.5, 901.0, 1156.5, 36.5, 521.0, 36.5 ],
					"source" : [ "obj-74", 0 ]
				}

			}
, 			{
				"patchline" : 				{
					"destination" : [ "obj-10", 0 ],
					"disabled" : 0,
					"hidden" : 0,
					"source" : [ "obj-8", 1 ]
				}

			}
, 			{
				"patchline" : 				{
					"destination" : [ "obj-8", 0 ],
					"disabled" : 0,
					"hidden" : 0,
					"source" : [ "obj-9", 0 ]
				}

			}
 ],
		"dependency_cache" : [ 			{
				"name" : "cage.meta.header.maxpat",
				"bootpath" : "~/Documents/Max 7/Packages/cage/patchers",
				"type" : "JSON",
				"implicit" : 1
			}
, 			{
				"name" : "bach.filternull.maxpat",
				"bootpath" : "~/Documents/Max 7/Packages/bach/patchers",
				"type" : "JSON",
				"implicit" : 1
			}
, 			{
				"name" : "bach.slot2function.maxpat",
				"bootpath" : "~/Documents/Max 7/Packages/bach/patchers",
				"type" : "JSON",
				"implicit" : 1
			}
, 			{
				"name" : "bach.dl2curve.maxpat",
				"bootpath" : "~/Documents/Max 7/Packages/bach/patchers",
				"type" : "JSON",
				"implicit" : 1
			}
, 			{
				"name" : "bach.slot2curve.maxpat",
				"bootpath" : "~/Documents/Max 7/Packages/bach/patchers",
				"type" : "JSON",
				"implicit" : 1
			}
, 			{
				"name" : "bach.times.maxpat",
				"bootpath" : "~/Documents/Max 7/Packages/bach/patchers",
				"type" : "JSON",
				"implicit" : 1
			}
, 			{
				"name" : "bach.x2dx.maxpat",
				"bootpath" : "~/Documents/Max 7/Packages/bach/patchers",
				"type" : "JSON",
				"implicit" : 1
			}
, 			{
				"name" : "bach.+.maxpat",
				"bootpath" : "~/Documents/Max 7/Packages/bach/patchers",
				"type" : "JSON",
				"implicit" : 1
			}
, 			{
				"name" : "bach.div.maxpat",
				"bootpath" : "~/Documents/Max 7/Packages/bach/patchers",
				"type" : "JSON",
				"implicit" : 1
			}
, 			{
				"name" : "bach.mc2f.maxpat",
				"bootpath" : "~/Documents/Max 7/Packages/bach/patchers",
				"type" : "JSON",
				"implicit" : 1
			}
, 			{
				"name" : "bach.prepend.maxpat",
				"bootpath" : "~/Documents/Max 7/Packages/bach/patchers",
				"type" : "JSON",
				"implicit" : 1
			}
, 			{
				"name" : "bach.playkeys.mxo",
				"type" : "iLaX"
			}
, 			{
				"name" : "bach.value.mxo",
				"type" : "iLaX"
			}
, 			{
				"name" : "bach.find.mxo",
				"type" : "iLaX"
			}
, 			{
				"name" : "bach.eq.mxo",
				"type" : "iLaX"
			}
, 			{
				"name" : "bach.portal.mxo",
				"type" : "iLaX"
			}
, 			{
				"name" : "bach.args.mxo",
				"type" : "iLaX"
			}
, 			{
				"name" : "bach.reg.mxo",
				"type" : "iLaX"
			}
, 			{
				"name" : "bach.pick.mxo",
				"type" : "iLaX"
			}
, 			{
				"name" : "bach.wrap.mxo",
				"type" : "iLaX"
			}
, 			{
				"name" : "bach.subs.mxo",
				"type" : "iLaX"
			}
, 			{
				"name" : "bach.join.mxo",
				"type" : "iLaX"
			}
, 			{
				"name" : "bach.depth.mxo",
				"type" : "iLaX"
			}
, 			{
				"name" : "bach.iter.mxo",
				"type" : "iLaX"
			}
, 			{
				"name" : "bach.keys.mxo",
				"type" : "iLaX"
			}
, 			{
				"name" : "bach.trans.mxo",
				"type" : "iLaX"
			}
, 			{
				"name" : "bach.expr.mxo",
				"type" : "iLaX"
			}
, 			{
				"name" : "bach.collect.mxo",
				"type" : "iLaX"
			}
, 			{
				"name" : "bach.flat.mxo",
				"type" : "iLaX"
			}
, 			{
				"name" : "bach.slice.mxo",
				"type" : "iLaX"
			}
, 			{
				"name" : "bach.lace.mxo",
				"type" : "iLaX"
			}
, 			{
				"name" : "bach.gt.mxo",
				"type" : "iLaX"
			}
, 			{
				"name" : "bach.length.mxo",
				"type" : "iLaX"
			}
, 			{
				"name" : "bach.print.mxo",
				"type" : "iLaX"
			}
, 			{
				"name" : "bach.slot.mxo",
				"type" : "iLaX"
			}
, 			{
				"name" : "bach.pack.mxo",
				"type" : "iLaX"
			}
, 			{
				"name" : "bach.mapelem.mxo",
				"type" : "iLaX"
			}
, 			{
				"name" : "bach.nth.mxo",
				"type" : "iLaX"
			}
 ],
		"autosave" : 0
	}

}
